<svg width="144" height="68" viewBox="0 0 144 68" fill="none" xmlns="http://www.w3.org/2000/svg">
<path d="M143.072 66.6854C143.224 67.2164 142.917 67.77 142.386 67.9221C141.855 68.0742 141.302 67.767 141.15 67.2361L143.072 66.6854ZM5.29869 45.7333C4.78567 45.9379 4.20398 45.6878 3.99945 45.1748L0.666338 36.8147C0.461802 36.3017 0.711872 35.72 1.22489 35.5155C1.7379 35.311 2.31959 35.561 2.52413 36.074L5.48689 43.5052L12.918 40.5424C13.4311 40.3379 14.0127 40.588 14.2173 41.101C14.4218 41.614 14.1717 42.1957 13.6587 42.4002L5.29869 45.7333ZM141.15 67.2361L137.233 53.5596L139.155 53.0089L143.072 66.6854L141.15 67.2361ZM137.233 53.5596C119.143 -9.60433 31.7968 -15.1623 5.84704 45.1994L4.00964 44.4095C30.702 -17.6797 120.548 -11.9626 139.155 53.0089L137.233 53.5596Z" fill="#B881FF"/>
</svg>
