<svg width="40" height="40" viewBox="0 0 40 40" fill="none" xmlns="http://www.w3.org/2000/svg">
<path d="M36.782 26.4121C36.0153 28.4954 34.845 30.4069 33.3383 32.0371C31.8087 33.6858 29.9696 35.0174 27.9258 35.9559C25.8479 36.897 23.6056 37.4215 21.3258 37.4996C19.0094 37.584 16.6989 37.2123 14.5258 36.4059C12.324 35.5857 10.3046 34.3413 8.58203 32.7434C6.83823 31.1184 5.43037 29.1669 4.43828 26.9996C4.10203 26.2678 3.81595 25.514 3.58203 24.7434L0.582031 24.9996L2.80703 20.2559L3.80703 18.1246L4.73203 16.1621L6.32578 18.4496L6.73828 19.0746L10.3133 24.1996L7.40703 24.4496C8.0211 26.7362 9.17656 28.8413 10.7758 30.5871C13.5057 33.5501 17.3004 35.308 21.3258 35.4746C25.4776 35.6298 29.5221 34.1356 32.5758 31.3184C34.1478 29.868 35.4179 28.1216 36.3135 26.1792C37.209 24.2369 37.7123 22.1369 37.7945 19.9996C37.8801 22.1828 37.5361 24.3615 36.782 26.4121Z" fill="#1C1D20"/>
<path d="M3.21865 13.5884C3.98542 11.5052 5.15568 9.59367 6.6624 7.96343C8.19196 6.31469 10.0311 4.98313 12.0749 4.04468C14.1528 3.10351 16.3951 2.57902 18.6749 2.50093C20.9884 2.41341 23.2966 2.78076 25.4687 3.58218C27.6704 4.40238 29.6899 5.64673 31.4124 7.24468C33.1562 8.86966 34.5641 10.8211 35.5562 12.9884C35.8924 13.7202 36.1785 14.474 36.4124 15.2447L39.4187 15.0009L37.1937 19.7447L36.1937 21.8759L35.2687 23.8384L33.6749 21.5509L33.2624 20.9259L29.6874 15.8009L32.5937 15.5509C31.9796 13.2644 30.8241 11.1593 29.2249 9.41343C26.4907 6.45971 22.6967 4.71102 18.6749 4.55093C14.5231 4.39576 10.4786 5.88998 7.4249 8.70718C5.85585 10.1546 4.58736 11.897 3.6919 13.8348C2.79645 15.7727 2.29159 17.8679 2.20615 20.0009C2.12061 17.8178 2.46462 15.639 3.21865 13.5884Z" fill="#1C1D20"/>
<path d="M16.1493 12.5008V22.0508C16.1293 22.2079 16.1647 22.367 16.2493 22.5008C16.2811 22.5448 16.3243 22.5794 16.3743 22.6008L16.7493 22.7008C16.8592 22.7119 16.9607 22.7648 17.0328 22.8485C17.1049 22.9322 17.1421 23.0404 17.1368 23.1508C17.1364 23.2221 17.1164 23.2919 17.0789 23.3526C17.0414 23.4132 16.9879 23.4624 16.9243 23.4946C16.7653 23.5727 16.5884 23.6072 16.4118 23.5946H12.768C12.5913 23.6084 12.4141 23.5739 12.2555 23.4946C12.1919 23.4624 12.1384 23.4132 12.1009 23.3526C12.0634 23.2919 12.0434 23.2221 12.043 23.1508C12.0377 23.0404 12.0749 22.9322 12.147 22.8485C12.2191 22.7648 12.3206 22.7119 12.4305 22.7008L12.8055 22.6008C12.8522 22.5795 12.8914 22.5447 12.918 22.5008C13.0128 22.3685 13.0572 22.2067 13.043 22.0446V14.4446C13.0545 14.2325 13.0248 14.0203 12.9555 13.8196C12.9342 13.7614 12.8972 13.7102 12.8487 13.6716C12.8002 13.633 12.742 13.6085 12.6805 13.6008L12.393 13.5571C12.1388 13.5196 12.0118 13.3904 12.0118 13.1696C12.0106 13.0859 12.0328 13.0035 12.0758 12.9318C12.1189 12.86 12.1811 12.8017 12.2555 12.7633C12.4177 12.7044 12.5892 12.6747 12.7618 12.6758L16.1493 12.5008ZM27.5618 20.0008C27.6189 19.9979 27.6758 20.0096 27.7272 20.0347C27.7786 20.0599 27.8227 20.0977 27.8555 20.1446C27.9411 20.262 27.9831 20.4057 27.9743 20.5508C27.9606 20.9829 27.8607 21.4079 27.6805 21.8008C27.5145 22.2147 27.2729 22.5941 26.968 22.9196C26.7141 23.1739 26.4125 23.3757 26.0805 23.5133C25.766 23.6557 25.4257 23.7323 25.0805 23.7383C24.6736 23.7335 24.2695 23.6704 23.8805 23.5508L22.8055 23.2321C22.4262 23.1038 22.0345 23.0159 21.6368 22.9696C21.3517 22.9899 21.0833 23.1119 20.8805 23.3133C20.778 23.4213 20.645 23.4954 20.4993 23.5258C20.445 23.5283 20.3909 23.5183 20.341 23.4966C20.2912 23.475 20.247 23.4422 20.2118 23.4008C20.1383 23.2996 20.1028 23.1756 20.1118 23.0508C20.1164 22.7416 20.1867 22.437 20.318 22.1571C20.4494 21.86 20.636 21.5906 20.868 21.3633C21.1372 21.1122 21.454 20.9176 21.7996 20.7909C22.1453 20.6643 22.5128 20.6081 22.8805 20.6258C23.4183 20.6419 23.9536 20.7046 24.4805 20.8133C25.1128 20.9503 25.754 21.0422 26.3993 21.0883C26.5032 21.0967 26.6078 21.0839 26.7067 21.0506C26.8055 21.0173 26.8966 20.9642 26.9743 20.8946C27.0174 20.8448 27.0513 20.7876 27.0743 20.7258C27.1124 20.6153 27.1437 20.5026 27.168 20.3883C27.2305 20.13 27.3618 20.0008 27.5618 20.0008ZM22.9368 12.3883V13.2508C22.8069 13.2751 22.6821 13.3216 22.568 13.3883C22.4722 13.4466 22.4284 13.5071 22.4368 13.5696C22.4451 13.6321 22.518 13.7133 22.6555 13.8133C22.8721 13.9513 23.0539 14.1374 23.1868 14.3571C23.3338 14.6464 23.3834 14.9755 23.3282 15.2954C23.273 15.6152 23.116 15.9087 22.8805 16.1321C22.5791 16.4271 22.1742 16.5924 21.7524 16.5924C21.3306 16.5924 20.9256 16.4271 20.6243 16.1321C20.4719 15.9762 20.3524 15.7914 20.273 15.5884C20.1935 15.3855 20.1557 15.1687 20.1618 14.9508C20.1603 14.5024 20.3003 14.065 20.5618 13.7008C20.8405 13.3065 21.2176 12.9919 21.6555 12.7883C22.0646 12.6031 22.4949 12.4688 22.9368 12.3883ZM23.6493 13.2508V12.3633H23.868C24.4179 12.3614 24.9638 12.4566 25.4805 12.6446C25.9464 12.8135 26.3721 13.0774 26.7305 13.4196C27.0133 13.6923 27.236 14.0211 27.3845 14.3849C27.533 14.7486 27.6041 15.1393 27.593 15.5321C27.6096 16.2338 27.3894 16.9207 26.968 17.4821C26.4901 18.0841 25.8569 18.5444 25.1368 18.8133L24.0743 19.2383C23.6279 19.423 23.1919 19.6317 22.768 19.8633L22.5243 20.0008C22.3129 20.0009 22.1025 20.0303 21.8993 20.0883C21.6034 20.1816 21.3133 20.2922 21.0305 20.4196C21.2078 20.179 21.4043 19.9533 21.618 19.7446C21.8138 19.5529 22.1097 19.3029 22.5055 18.9946C22.8666 18.7237 23.2129 18.4337 23.543 18.1258C23.7234 17.9411 23.875 17.7304 23.993 17.5008C24.1275 17.2354 24.2203 16.9508 24.268 16.6571C24.3332 16.2437 24.3625 15.8255 24.3555 15.4071C24.3829 14.8454 24.3044 14.2835 24.1243 13.7508C24.0756 13.6489 24.0101 13.556 23.9305 13.4758C23.8494 13.3887 23.7569 13.3131 23.6555 13.2508H23.6493ZM14.0868 27.5821H13.0805C13.0418 27.5937 13.0005 27.5937 12.9618 27.5821C12.9481 27.5734 12.9369 27.5614 12.9292 27.5472C12.9215 27.533 12.9177 27.517 12.918 27.5008C12.9174 27.4748 12.9257 27.4494 12.9417 27.4289C12.9576 27.4084 12.9802 27.3941 13.0055 27.3883H13.0868C13.0974 27.3537 13.0974 27.3167 13.0868 27.2821V25.0571C13.0974 25.0224 13.0974 24.9854 13.0868 24.9508H13.0055C12.9802 24.945 12.9576 24.9307 12.9417 24.9102C12.9257 24.8897 12.9174 24.8643 12.918 24.8383C12.9177 24.8221 12.9215 24.8062 12.9292 24.7919C12.9369 24.7777 12.9481 24.7657 12.9618 24.7571C13.0005 24.7454 13.0418 24.7454 13.0805 24.7571H14.143C14.243 24.7571 14.293 24.7946 14.293 24.8696C14.2952 24.8949 14.2882 24.9203 14.2733 24.9409C14.2584 24.9616 14.2365 24.9762 14.2118 24.9821H14.143C14.1013 24.9821 14.0805 25.03 14.0805 25.1258V27.2633C14.0805 27.3425 14.1013 27.3904 14.143 27.4071H14.2118C14.2365 27.413 14.2584 27.4276 14.2733 27.4482C14.2882 27.4689 14.2952 27.4942 14.293 27.5196C14.293 27.5946 14.243 27.6321 14.143 27.6321L14.0868 27.5821ZM14.268 25.9883H14.618V25.0571C14.618 24.9779 14.5972 24.93 14.5555 24.9133H14.4868C14.462 24.9074 14.4401 24.8928 14.4252 24.8722C14.4103 24.8515 14.4033 24.8262 14.4055 24.8008C14.4055 24.7258 14.4576 24.6883 14.5618 24.6883H15.6243C15.7326 24.6883 15.7868 24.7258 15.7868 24.8008C15.7874 24.8268 15.779 24.8522 15.7631 24.8727C15.7472 24.8932 15.7246 24.9075 15.6993 24.9133H15.618C15.6074 24.9479 15.6074 24.9849 15.618 25.0196V27.1508C15.618 27.23 15.6388 27.2779 15.6805 27.2946H15.7493C15.7757 27.3005 15.7991 27.3158 15.8152 27.3376C15.8313 27.3594 15.8389 27.3863 15.8368 27.4133C15.8368 27.4883 15.7826 27.5258 15.6743 27.5258H14.5493C14.4493 27.5258 14.3993 27.4883 14.3993 27.4133C14.3968 27.3871 14.4036 27.3609 14.4184 27.3392C14.4333 27.3176 14.4552 27.3017 14.4805 27.2946H14.5493C14.5909 27.2946 14.6118 27.2466 14.6118 27.1508V26.1946H14.2618L14.268 25.9883ZM17.2993 24.8383C17.2371 24.856 17.1823 24.8932 17.143 24.9446C17.11 25.0036 17.0948 25.0709 17.0993 25.1383V27.0446C17.0918 27.135 17.1091 27.2257 17.1493 27.3071C17.1853 27.3565 17.2391 27.39 17.2993 27.4008V27.6383C17.0006 27.6184 16.7189 27.492 16.5055 27.2821C16.3608 27.1279 16.2491 26.9458 16.1771 26.747C16.1051 26.5483 16.0744 26.3369 16.0868 26.1258C16.0847 25.898 16.1227 25.6716 16.1993 25.4571C16.2679 25.2659 16.3791 25.0928 16.5243 24.9508C16.6272 24.8486 16.7479 24.766 16.8805 24.7071C17.0132 24.6504 17.1551 24.6186 17.2993 24.6133V24.8383ZM17.4743 24.8383V24.6071C17.7664 24.6158 18.0439 24.7367 18.2493 24.9446C18.3995 25.1008 18.516 25.2863 18.5912 25.4895C18.6665 25.6928 18.699 25.9094 18.6868 26.1258C18.6992 26.3369 18.6684 26.5483 18.5964 26.747C18.5244 26.9458 18.4127 27.1279 18.268 27.2821C18.0546 27.492 17.773 27.6184 17.4743 27.6383V27.4008L17.5618 27.3696C17.584 27.3546 17.6031 27.3355 17.618 27.3133C17.661 27.2328 17.6804 27.1418 17.6743 27.0508V25.1383C17.678 25.0756 17.665 25.0131 17.6368 24.9571C17.6211 24.9299 17.5998 24.9065 17.5743 24.8883L17.4743 24.8383ZM19.1305 26.7258V25.0571C19.1411 25.0224 19.1411 24.9854 19.1305 24.9508H19.0493C19.0239 24.945 19.0014 24.9307 18.9854 24.9102C18.9695 24.8897 18.9611 24.8643 18.9618 24.8383C18.9614 24.8221 18.9653 24.8062 18.9729 24.7919C18.9806 24.7777 18.9918 24.7657 19.0055 24.7571C19.0442 24.7454 19.0855 24.7454 19.1243 24.7571H20.2618C20.286 24.7627 20.3079 24.7758 20.3243 24.7946C20.3324 24.8168 20.3324 24.8411 20.3243 24.8633C20.3249 24.8893 20.3165 24.9147 20.3006 24.9352C20.2846 24.9557 20.2621 24.97 20.2368 24.9758H20.1555C20.1449 25.0104 20.1449 25.0474 20.1555 25.0821V26.8758C20.1508 26.9591 20.1508 27.0425 20.1555 27.1258C20.1603 27.1714 20.173 27.2158 20.193 27.2571C20.2075 27.2867 20.229 27.3124 20.2555 27.3321C20.2966 27.3566 20.3407 27.3755 20.3868 27.3883V27.6696H20.3368C20.1811 27.6728 20.0257 27.656 19.8743 27.6196C19.7404 27.5854 19.6136 27.5283 19.4993 27.4508C19.4013 27.3869 19.3216 27.2986 19.268 27.1946C19.1853 27.0516 19.1381 26.8908 19.1305 26.7258ZM20.518 27.6383V27.3571C20.6535 27.3418 20.7794 27.28 20.8743 27.1821C20.9322 27.1155 20.9763 27.0382 21.0042 26.9545C21.0321 26.8709 21.0432 26.7825 21.0368 26.6946V25.3071C21.0435 25.2247 21.0258 25.1422 20.9857 25.0699C20.9457 24.9976 20.8852 24.9388 20.8118 24.9008C20.7795 24.8874 20.7499 24.8684 20.7243 24.8446C20.7171 24.8222 20.7171 24.7982 20.7243 24.7758C20.7219 24.7601 20.7242 24.744 20.7308 24.7296C20.7375 24.7151 20.7482 24.7029 20.7618 24.6946C20.8049 24.684 20.8499 24.684 20.893 24.6946H21.5618C21.5783 24.7026 21.5922 24.715 21.6022 24.7304C21.6121 24.7459 21.6176 24.7637 21.618 24.7821C21.6188 24.797 21.6165 24.812 21.6111 24.826C21.6057 24.84 21.5974 24.8527 21.5868 24.8633L21.493 24.9196C21.428 24.9548 21.3756 25.0094 21.343 25.0758C21.3059 25.1495 21.2866 25.2308 21.2868 25.3133V26.7071C21.2957 26.9142 21.2412 27.1192 21.1305 27.2946C21.0471 27.4146 20.9326 27.5096 20.7993 27.5696C20.7097 27.6071 20.6148 27.6303 20.518 27.6383ZM23.0743 24.6633V27.1633C23.0705 27.2053 23.0816 27.2473 23.1055 27.2821H23.2368C23.2655 27.2852 23.2919 27.2993 23.3105 27.3214C23.3291 27.3435 23.3385 27.372 23.3368 27.4008C23.3363 27.4192 23.3308 27.437 23.3209 27.4524C23.311 27.4679 23.297 27.4803 23.2805 27.4883C23.2355 27.5005 23.188 27.5005 23.143 27.4883H22.068C22.0293 27.5 21.988 27.5 21.9493 27.4883C21.9356 27.4797 21.9244 27.4677 21.9167 27.4534C21.909 27.4392 21.9052 27.4232 21.9055 27.4071C21.9049 27.3811 21.9132 27.3557 21.9292 27.3352C21.9451 27.3147 21.9677 27.3003 21.993 27.2946H22.0743C22.0849 27.2599 22.0849 27.2229 22.0743 27.1883V25.0571C22.0849 25.0224 22.0849 24.9854 22.0743 24.9508H21.993C21.9677 24.945 21.9451 24.9307 21.9292 24.9102C21.9132 24.8897 21.9049 24.8643 21.9055 24.8383C21.9052 24.8221 21.909 24.8062 21.9167 24.7919C21.9244 24.7777 21.9356 24.7657 21.9493 24.7571C21.988 24.7454 22.0293 24.7454 22.068 24.7571H23.0743V24.6633ZM23.6993 26.1508C23.801 26.1653 23.9014 26.1883 23.9993 26.2196C24.0685 26.2429 24.1338 26.2767 24.193 26.3196C24.2501 26.3605 24.2971 26.414 24.3305 26.4758C24.3628 26.5353 24.38 26.6019 24.3805 26.6696V27.1133C24.3805 27.1591 24.3951 27.1821 24.4243 27.1821L24.4555 27.1446C24.4661 27.1246 24.4812 27.1074 24.4997 27.0944C24.5181 27.0813 24.5394 27.0728 24.5618 27.0696C24.5762 27.07 24.5904 27.0736 24.6034 27.0801C24.6163 27.0865 24.6277 27.0958 24.6368 27.1071C24.6585 27.1263 24.6719 27.1532 24.6743 27.1821C24.6692 27.2411 24.6476 27.2974 24.6118 27.3446C24.5688 27.4086 24.5161 27.4656 24.4555 27.5133C24.3999 27.5583 24.3363 27.5922 24.268 27.6133C24.1872 27.6252 24.1051 27.6252 24.0243 27.6133C23.9441 27.6175 23.8639 27.6053 23.7887 27.5774C23.7134 27.5494 23.6447 27.5063 23.5868 27.4508C23.4773 27.3273 23.4212 27.1656 23.4305 27.0008V26.5071C23.4245 26.4521 23.4028 26.4 23.368 26.3571C23.3235 26.3059 23.2606 26.2744 23.193 26.2696V26.0383C23.2519 26.0326 23.308 26.011 23.3555 25.9758C23.3817 25.9521 23.4011 25.9219 23.4118 25.8883C23.4187 25.8406 23.4187 25.7922 23.4118 25.7446V25.1758C23.4177 25.1054 23.4001 25.0351 23.3618 24.9758C23.3115 24.9222 23.2461 24.8851 23.1743 24.8696V24.6321H23.6368C23.7966 24.6454 23.9499 24.7016 24.0805 24.7946C24.1739 24.8556 24.2492 24.9406 24.2987 25.0406C24.3481 25.1406 24.3699 25.252 24.3618 25.3633C24.3653 25.454 24.3505 25.5444 24.3183 25.6293C24.2861 25.7141 24.2371 25.7916 24.1743 25.8571C24.1204 25.912 24.0568 25.9565 23.9868 25.9883C23.9111 26.0475 23.8318 26.1017 23.7493 26.1508H23.6993ZM25.9493 24.6071V24.8508C25.8733 24.8686 25.8039 24.9076 25.7493 24.9633C25.7031 25.0147 25.6785 25.0818 25.6805 25.1508C25.6787 25.2177 25.6984 25.2834 25.7368 25.3383C25.7879 25.4011 25.8518 25.4522 25.9243 25.4883L26.3305 25.6758C26.4342 25.7182 26.5344 25.7683 26.6305 25.8258C26.704 25.8734 26.7712 25.9301 26.8305 25.9946C26.9933 26.1616 27.0832 26.3864 27.0805 26.6196C27.0854 26.7996 27.0401 26.9774 26.9496 27.133C26.859 27.2887 26.7269 27.4161 26.568 27.5008C26.4789 27.5474 26.3844 27.5831 26.2868 27.6071C26.1929 27.6317 26.0963 27.6443 25.9993 27.6446V27.4008C26.0982 27.3833 26.1909 27.3402 26.268 27.2758C26.2961 27.2471 26.3178 27.2127 26.3318 27.175C26.3458 27.1374 26.3518 27.0972 26.3493 27.0571C26.3476 27.0082 26.3349 26.9603 26.3122 26.9171C26.2895 26.8738 26.2573 26.8362 26.218 26.8071C26.1172 26.7358 26.008 26.677 25.893 26.6321L25.5305 26.4696C25.465 26.4374 25.4022 26.3998 25.343 26.3571C25.2175 26.2739 25.1151 26.1605 25.0451 26.0272C24.9752 25.8939 24.9401 25.7451 24.943 25.5946C24.9413 25.4389 24.9755 25.2849 25.043 25.1446C25.1067 25.0118 25.2036 24.8977 25.3243 24.8133C25.5084 24.6858 25.7254 24.6142 25.9493 24.6071ZM25.8368 27.3946V27.6383C25.7018 27.6341 25.5694 27.5999 25.4493 27.5383L25.343 27.5008H25.2243L25.1555 27.5696C25.1468 27.5837 25.1349 27.5955 25.1208 27.6042C25.1067 27.6129 25.0908 27.6181 25.0743 27.6196C24.9951 27.6196 24.9555 27.5591 24.9555 27.4383V26.6508C24.9541 26.6149 24.9651 26.5796 24.9868 26.5508C24.9971 26.5374 25.0104 26.5265 25.0255 26.5189C25.0407 26.5113 25.0573 26.5073 25.0743 26.5071C25.086 26.5015 25.0988 26.4986 25.1118 26.4986C25.1247 26.4986 25.1375 26.5015 25.1493 26.5071C25.1712 26.5367 25.1862 26.5708 25.193 26.6071C25.2255 26.7275 25.2738 26.8431 25.3368 26.9508C25.3951 27.0513 25.4689 27.142 25.5555 27.2196C25.6322 27.3047 25.7322 27.3655 25.843 27.3946H25.8368ZM26.118 24.8508V24.6133C26.1938 24.6166 26.2692 24.6271 26.343 24.6446C26.4347 24.672 26.5245 24.7054 26.6118 24.7446H26.6805C26.6902 24.7495 26.7009 24.7521 26.7118 24.7521C26.7226 24.7521 26.7333 24.7495 26.743 24.7446L26.793 24.6821C26.8013 24.6676 26.8131 24.6555 26.8273 24.6467C26.8415 24.638 26.8576 24.633 26.8743 24.6321C26.8904 24.6317 26.9064 24.6356 26.9206 24.6432C26.9349 24.6509 26.9469 24.6621 26.9555 24.6758C26.9672 24.7188 26.9672 24.7641 26.9555 24.8071V25.5133C26.9563 25.5502 26.9429 25.586 26.918 25.6133C26.9044 25.6203 26.8895 25.6245 26.8743 25.6258C26.8479 25.6349 26.8193 25.6349 26.793 25.6258V25.5821C26.79 25.5551 26.79 25.5278 26.793 25.5008C26.7755 25.4247 26.7482 25.3511 26.7118 25.2821C26.6743 25.21 26.6281 25.1429 26.5743 25.0821C26.455 24.9526 26.293 24.8705 26.118 24.8508Z" fill="#1C1D20"/>
</svg>
