<svg width="139" height="78" viewBox="0 0 139 78" fill="none" xmlns="http://www.w3.org/2000/svg">
<path d="M0.864266 76.4822C0.818482 77.0326 1.22754 77.5159 1.77792 77.5617C2.32831 77.6075 2.8116 77.1984 2.85738 76.648L0.864266 76.4822ZM135.234 39.4732C135.765 39.6252 136.319 39.318 136.471 38.787L138.948 30.1347C139.1 29.6037 138.793 29.0501 138.262 28.8981C137.731 28.7461 137.177 29.0532 137.025 29.5842L134.823 37.2752L127.132 35.0732C126.601 34.9211 126.048 35.2283 125.896 35.7593C125.744 36.2902 126.051 36.8439 126.582 36.9959L135.234 39.4732ZM2.85738 76.648L3.64672 67.1593L1.6536 66.9935L0.864266 76.4822L2.85738 76.648ZM3.64672 67.1593C9.38452 -1.81547 101.055 -21.5246 134.635 38.997L136.384 38.0266C101.845 -24.2239 7.55531 -3.95169 1.6536 66.9935L3.64672 67.1593Z" fill="#FCD34D"/>
</svg>
